<svg width="193" height="187" viewBox="0 0 193 187" fill="none" xmlns="http://www.w3.org/2000/svg">
<g opacity="0.6">
<path d="M107 9.8385L92 18.3589L92 1.31811L107 9.8385Z" fill="#00A6FB"/>
<path d="M10 80.6758L18.6603 95.4335H1.33975L10 80.6758Z" fill="#FBB315"/>
<path d="M183 105.272L174.34 90.5143L191.66 90.5143L183 105.272Z" fill="#00C43C"/>
<path d="M87 177.093L102 168.573L102 185.614L87 177.093Z" fill="#E85236"/>
<path d="M185.687 114.501C186.166 112.915 185.267 111.241 183.681 110.763C182.095 110.284 180.421 111.182 179.943 112.769L185.687 114.501ZM178.719 116.505C178.167 118.067 178.985 119.781 180.547 120.333C182.109 120.886 183.823 120.068 184.376 118.506L178.719 116.505ZM181.195 126.306C181.892 124.803 181.239 123.02 179.735 122.323C178.232 121.626 176.449 122.28 175.752 123.783L181.195 126.306ZM172.116 130.753C171.282 132.185 171.767 134.021 173.199 134.855C174.63 135.689 176.467 135.204 177.301 133.773L172.116 130.753ZM172.731 140.843C173.694 139.495 173.381 137.621 172.033 136.659C170.684 135.696 168.811 136.009 167.848 137.357L172.731 140.843ZM162.988 143.542C161.905 144.797 162.045 146.691 163.299 147.773C164.554 148.856 166.448 148.716 167.53 147.462L162.988 143.542ZM161.747 153.575C162.94 152.425 162.973 150.526 161.823 149.333C160.673 148.141 158.773 148.107 157.581 149.258L161.747 153.575ZM151.676 154.458C150.384 155.496 150.178 157.384 151.215 158.676C152.252 159.968 154.141 160.174 155.433 159.137L151.676 154.458ZM148.64 164.102C150.021 163.185 150.397 161.324 149.481 159.943C148.565 158.563 146.704 158.186 145.323 159.102L148.64 164.102ZM138.575 163.151C137.117 163.939 136.574 165.759 137.361 167.217C138.148 168.674 139.968 169.218 141.426 168.431L138.575 163.151ZM133.848 172.089C135.371 171.437 136.077 169.674 135.425 168.151C134.774 166.628 133.01 165.921 131.487 166.573L133.848 172.089ZM124.121 169.338C122.545 169.849 121.682 171.541 122.193 173.117C122.704 174.693 124.396 175.556 125.972 175.045L124.121 169.338ZM117.861 177.276C119.477 176.909 120.489 175.302 120.123 173.686C119.756 172.07 118.149 171.058 116.533 171.424L117.861 177.276ZM108.785 172.819C107.143 173.039 105.99 174.548 106.21 176.19C106.43 177.833 107.94 178.986 109.582 178.766L108.785 172.819ZM101.204 179.509C102.859 179.436 104.142 178.035 104.069 176.38C103.996 174.724 102.595 173.442 100.94 173.515L101.204 179.509ZM179.943 112.769C179.563 114.026 179.155 115.272 178.719 116.505L184.376 118.506C184.843 117.185 185.281 115.849 185.687 114.501L179.943 112.769ZM175.752 123.783C174.647 126.167 173.433 128.492 172.116 130.753L177.301 133.773C178.711 131.352 180.011 128.861 181.195 126.306L175.752 123.783ZM167.848 137.357C166.323 139.493 164.701 141.556 162.988 143.542L167.53 147.462C169.363 145.338 171.099 143.129 172.731 140.843L167.848 137.357ZM157.581 149.258C155.695 151.078 153.724 152.813 151.676 154.458L155.433 159.137C157.623 157.378 159.73 155.522 161.747 153.575L157.581 149.258ZM145.323 159.102C143.142 160.549 140.891 161.901 138.575 163.151L141.426 168.431C143.902 167.094 146.309 165.649 148.64 164.102L145.323 159.102ZM131.487 166.573C129.086 167.601 126.629 168.524 124.121 169.338L125.972 175.045C128.654 174.175 131.281 173.188 133.848 172.089L131.487 166.573ZM116.533 171.424C113.992 172.001 111.408 172.468 108.785 172.819L109.582 178.766C112.383 178.39 115.145 177.892 117.861 177.276L116.533 171.424ZM100.94 173.515C99.6343 173.572 98.3207 173.601 97 173.601L97 179.601C98.4088 179.601 99.8104 179.57 101.204 179.509L100.94 173.515Z" fill="#E95238"/>
<path d="M7.31282 71.9389C6.83445 73.5252 7.73258 75.1989 9.31888 75.6773C10.9052 76.1557 12.5789 75.2575 13.0573 73.6712L7.31282 71.9389ZM14.2808 69.9352C14.8335 68.3733 14.0152 66.659 12.4533 66.1064C10.8913 65.5537 9.17707 66.372 8.62443 67.9339L14.2808 69.9352ZM11.8045 60.1334C11.1077 61.6366 11.7614 63.4201 13.2646 64.1169C14.7678 64.8137 16.5513 64.16 17.2481 62.6568L11.8045 60.1334ZM20.8838 55.6869C21.7177 54.2552 21.233 52.4186 19.8013 51.5847C18.3696 50.7508 16.533 51.2354 15.6991 52.6671L20.8838 55.6869ZM20.2689 45.5963C19.3062 46.9448 19.6189 48.8184 20.9674 49.7811C22.3159 50.7438 24.1894 50.4311 25.1522 49.0826L20.2689 45.5963ZM30.0123 42.8977C31.0947 41.6433 30.9552 39.7489 29.7008 38.6665C28.4464 37.5841 26.552 37.7236 25.4696 38.978L30.0123 42.8977ZM31.2527 32.8644C30.0604 34.0148 30.0265 35.914 31.177 37.1063C32.3274 38.2986 34.2266 38.3326 35.4189 37.1821L31.2527 32.8644ZM41.3243 31.9813C42.6162 30.9439 42.8224 29.0556 41.785 27.7637C40.7476 26.4719 38.8593 26.2656 37.5675 27.303L41.3243 31.9813ZM44.3596 22.3382C42.9791 23.2543 42.6025 25.1161 43.5186 26.4966C44.4347 27.8772 46.2965 28.2538 47.677 27.3377L44.3596 22.3382ZM54.4249 23.2884C55.8828 22.5011 56.4264 20.6811 55.6392 19.2232C54.852 17.7653 53.0319 17.2217 51.574 18.0089L54.4249 23.2884ZM59.1522 14.3506C57.629 15.0024 56.9226 16.7657 57.5745 18.2889C58.2264 19.8122 59.9896 20.5185 61.5129 19.8666L59.1522 14.3506ZM68.8793 17.1022C70.4553 16.591 71.3185 14.8989 70.8072 13.3229C70.296 11.7469 68.604 10.8837 67.028 11.3949L68.8793 17.1022ZM75.1391 9.16421C73.5234 9.53087 72.5108 11.138 72.8774 12.7537C73.2441 14.3695 74.8512 15.3821 76.4669 15.0154L75.1391 9.16421ZM84.2145 13.621C85.8567 13.4011 87.0097 11.8916 86.7898 10.2494C86.5698 8.6072 85.0603 7.45422 83.4181 7.67413L84.2145 13.621ZM91.7958 6.93095C90.1405 7.00388 88.8578 8.40484 88.9307 10.0601C89.0036 11.7153 90.4046 12.9981 92.0599 12.9251L91.7958 6.93095ZM13.0573 73.6712C13.4366 72.4135 13.8447 71.1679 14.2808 69.9352L8.62443 67.9339C8.15691 69.2553 7.71944 70.5905 7.31282 71.9389L13.0573 73.6712ZM17.2481 62.6568C18.3532 60.2727 19.5672 57.9474 20.8838 55.6869L15.6991 52.6671C14.2891 55.088 12.9887 57.5789 11.8045 60.1334L17.2481 62.6568ZM25.1522 49.0826C26.6768 46.947 28.2989 44.8833 30.0123 42.8977L25.4696 38.978C23.6367 41.1022 21.9008 43.3106 20.2689 45.5963L25.1522 49.0826ZM35.4189 37.1821C37.305 35.3622 39.2756 33.6265 41.3243 31.9813L37.5675 27.303C35.3769 29.0621 33.2698 30.9181 31.2527 32.8644L35.4189 37.1821ZM47.677 27.3377C49.8577 25.8907 52.1091 24.5389 54.4249 23.2884L51.574 18.0089C49.0981 19.3459 46.6911 20.7912 44.3596 22.3382L47.677 27.3377ZM61.5129 19.8666C63.9136 18.8392 66.3711 17.9158 68.8793 17.1022L67.028 11.3949C64.3464 12.2648 61.719 13.252 59.1522 14.3506L61.5129 19.8666ZM76.4669 15.0154C79.0081 14.4388 81.5924 13.9722 84.2145 13.621L83.4181 7.67413C80.617 8.04923 77.8553 8.54783 75.1391 9.16421L76.4669 15.0154ZM92.0599 12.9251C93.3657 12.8676 94.6793 12.8385 96 12.8385L96 6.83853C94.5912 6.83853 93.1896 6.86955 91.7958 6.93095L92.0599 12.9251Z" fill="#00A6FB"/>
<path d="M119.841 6.95869C118.25 6.49441 116.584 7.40738 116.12 8.99785C115.656 10.5883 116.569 12.254 118.159 12.7183L119.841 6.95869ZM121.9 13.9024C123.467 14.4381 125.173 13.6013 125.708 12.0334C126.244 10.4655 125.407 8.76025 123.839 8.22462L121.9 13.9024ZM131.644 11.2914C130.131 10.6163 128.357 11.2957 127.682 12.8088C127.007 14.3219 127.686 16.0958 129.199 16.7708L131.644 11.2914ZM136.209 20.2862C137.655 21.0951 139.483 20.5786 140.292 19.1327C141.101 17.6867 140.585 15.8587 139.139 15.0498L136.209 20.2862ZM146.263 19.4693C144.896 18.5331 143.029 18.8825 142.093 20.2495C141.156 21.6166 141.506 23.4837 142.873 24.4198L146.263 19.4693ZM149.137 29.1389C150.414 30.1947 152.305 30.0155 153.361 28.7386C154.416 27.4617 154.237 25.5707 152.96 24.5149L149.137 29.1389ZM159.174 30.1455C157.998 28.9784 156.098 28.9857 154.931 30.1617C153.764 31.3378 153.771 33.2373 154.947 34.4043L159.174 30.1455ZM160.255 40.1744C161.32 41.4436 163.213 41.6092 164.482 40.5442C165.751 39.4792 165.917 37.5869 164.852 36.3177L160.255 40.1744ZM169.944 42.9835C168.999 41.6221 167.13 41.284 165.769 42.2283C164.407 43.1726 164.069 45.0418 165.014 46.4032L169.944 42.9835ZM169.178 53.041C169.993 54.4837 171.823 54.9928 173.265 54.1782C174.708 53.3635 175.217 51.5335 174.403 50.0908L169.178 53.041ZM178.185 57.5831C177.508 56.0708 175.734 55.3937 174.221 56.0707C172.709 56.7477 172.032 58.5224 172.709 60.0346L178.185 57.5831ZM175.571 67.3247C176.103 68.8937 177.807 69.7339 179.376 69.2015C180.945 68.669 181.785 66.9654 181.253 65.3965L175.571 67.3247ZM183.574 73.4633C183.191 71.8513 181.574 70.8548 179.962 71.2376C178.35 71.6204 177.353 73.2375 177.736 74.8495L183.574 73.4633ZM179.186 82.5458C179.416 84.1866 180.932 85.3304 182.573 85.1004C184.214 84.8705 185.358 83.3539 185.128 81.7131L179.186 82.5458ZM185.903 90.0714C185.827 88.4163 184.424 87.1365 182.768 87.2128C181.113 87.2891 179.834 88.6927 179.91 90.3478L185.903 90.0714ZM118.159 12.7183C119.418 13.0858 120.665 13.4808 121.9 13.9024L123.839 8.22462C122.52 7.77381 121.187 7.35158 119.841 6.95869L118.159 12.7183ZM129.199 16.7708C131.596 17.8402 133.935 19.0139 136.209 20.2862L139.139 15.0498C136.707 13.6896 134.207 12.4347 131.644 11.2914L129.199 16.7708ZM142.873 24.4198C145.035 25.9003 147.125 27.4754 149.137 29.1389L152.96 24.5149C150.809 22.7362 148.574 21.0521 146.263 19.4693L142.873 24.4198ZM154.947 34.4043C156.804 36.2468 158.576 38.1723 160.255 40.1744L164.852 36.3177C163.054 34.1756 161.16 32.1161 159.174 30.1455L154.947 34.4043ZM165.014 46.4032C166.501 48.5477 167.891 50.7624 169.178 53.041L174.403 50.0908C173.025 47.6503 171.536 45.2791 169.944 42.9835L165.014 46.4032ZM172.709 60.0346C173.772 62.4099 174.728 64.8419 175.571 67.3247L181.253 65.3965C180.349 62.735 179.325 60.1284 178.185 57.5831L172.709 60.0346ZM177.736 74.8495C178.335 77.3734 178.821 79.9406 179.186 82.5458L185.128 81.7131C184.736 78.921 184.216 76.1691 183.574 73.4633L177.736 74.8495ZM179.91 90.3478C179.97 91.6468 180 92.9537 180 94.2677H186C186 92.8615 185.968 91.4625 185.903 90.0714L179.91 90.3478Z" fill="#00C43C"/>
<path d="M73.1594 179.481C74.7498 179.945 76.4155 179.032 76.8798 177.442C77.3441 175.851 76.4311 174.186 74.8406 173.721L73.1594 179.481ZM71.1004 172.537C69.5325 172.002 67.8273 172.838 67.2916 174.406C66.756 175.974 67.5928 177.679 69.1607 178.215L71.1004 172.537ZM61.3562 175.148C62.8693 175.823 64.6431 175.144 65.3181 173.631C65.9932 172.118 65.3138 170.344 63.8007 169.669L61.3562 175.148ZM56.7907 166.154C55.3448 165.345 53.5168 165.861 52.7079 167.307C51.899 168.753 52.4155 170.581 53.8615 171.39L56.7907 166.154ZM46.7372 166.97C48.1043 167.907 49.9714 167.557 50.9075 166.19C51.8436 164.823 51.4943 162.956 50.1272 162.02L46.7372 166.97ZM43.8632 157.301C42.5863 156.245 40.6953 156.424 39.6395 157.701C38.5837 158.978 38.7629 160.869 40.0398 161.925L43.8632 157.301ZM33.8261 156.294C35.0022 157.461 36.9016 157.454 38.0687 156.278C39.2358 155.102 39.2286 153.202 38.0525 152.035L33.8261 156.294ZM32.7446 146.265C31.6796 144.996 29.7873 144.831 28.5181 145.896C27.2488 146.961 27.0833 148.853 28.1483 150.122L32.7446 146.265ZM23.0563 143.456C24.0006 144.818 25.8697 145.156 27.2311 144.211C28.5926 143.267 28.9307 141.398 27.9863 140.037L23.0563 143.456ZM23.8219 133.399C23.0072 131.956 21.1772 131.447 19.7345 132.262C18.2918 133.076 17.7827 134.906 18.5974 136.349L23.8219 133.399ZM14.8147 128.857C15.4917 130.369 17.2664 131.046 18.7786 130.369C20.2909 129.692 20.968 127.917 20.291 126.405L14.8147 128.857ZM17.429 119.115C16.8966 117.546 15.193 116.706 13.6241 117.238C12.0551 117.771 11.2149 119.474 11.7473 121.043L17.429 119.115ZM9.42617 112.976C9.80897 114.589 11.4261 115.585 13.0381 115.202C14.6501 114.819 15.6466 113.202 15.2638 111.59L9.42617 112.976ZM13.8144 103.894C13.5844 102.253 12.0679 101.109 10.4271 101.339C8.78624 101.569 7.6425 103.086 7.87245 104.727L13.8144 103.894ZM7.09656 96.3684C7.17287 98.0235 8.57645 99.3033 10.2315 99.227C11.8866 99.1507 13.1665 97.7471 13.0902 96.092L7.09656 96.3684ZM74.8406 173.721C73.5816 173.354 72.3347 172.959 71.1004 172.537L69.1607 178.215C70.4803 178.666 71.8134 179.088 73.1594 179.481L74.8406 173.721ZM63.8007 169.669C61.4037 168.6 59.065 167.426 56.7907 166.154L53.8615 171.39C56.293 172.75 58.7934 174.005 61.3562 175.148L63.8007 169.669ZM50.1272 162.02C47.9651 160.539 45.8751 158.964 43.8632 157.301L40.0398 161.925C42.191 163.704 44.4257 165.388 46.7372 166.97L50.1272 162.02ZM38.0525 152.035C36.1959 150.193 34.4245 148.267 32.7446 146.265L28.1483 150.122C29.9456 152.264 31.8405 154.324 33.8261 156.294L38.0525 152.035ZM27.9863 140.037C26.4988 137.892 25.1086 135.677 23.8219 133.399L18.5974 136.349C19.9754 138.789 21.464 141.161 23.0563 143.456L27.9863 140.037ZM20.291 126.405C19.2276 124.03 18.2717 121.598 17.429 119.115L11.7473 121.043C12.6506 123.705 13.6752 126.311 14.8147 128.857L20.291 126.405ZM15.2638 111.59C14.6645 109.066 14.1795 106.499 13.8144 103.894L7.87245 104.727C8.26373 107.519 8.78366 110.271 9.42617 112.976L15.2638 111.59ZM13.0902 96.092C13.0303 94.793 13 93.4861 13 92.1721L7.00002 92.1721C7.00002 93.5783 7.03242 94.9773 7.09656 96.3684L13.0902 96.092Z" fill="#FDAE15"/>
</g>
</svg>
