<svg width="58" height="58" viewBox="0 0 58 58" fill="none" xmlns="http://www.w3.org/2000/svg">
<path d="M29 58C45.0163 58 58 45.0163 58 29C58 12.9837 45.0163 0 29 0C12.9837 0 0 12.9837 0 29C0 45.0163 12.9837 58 29 58Z" fill="#F6BAAF"/>
<path d="M42.3846 17.8462C43.206 17.8462 43.8718 17.1804 43.8718 16.359C43.8718 15.5377 43.206 14.8718 42.3846 14.8718C41.5633 14.8718 40.8975 15.5377 40.8975 16.359C40.8975 17.1804 41.5633 17.8462 42.3846 17.8462Z" fill="white"/>
<path d="M46.1025 47.5897C46.9239 47.5897 47.5897 46.9239 47.5897 46.1025C47.5897 45.2812 46.9239 44.6154 46.1025 44.6154C45.2812 44.6154 44.6154 45.2812 44.6154 46.1025C44.6154 46.9239 45.2812 47.5897 46.1025 47.5897Z" fill="white"/>
<path d="M29 42.3846C29.8213 42.3846 30.4872 41.7188 30.4872 40.8975C30.4872 40.0761 29.8213 39.4103 29 39.4103C28.1786 39.4103 27.5128 40.0761 27.5128 40.8975C27.5128 41.7188 28.1786 42.3846 29 42.3846Z" fill="white"/>
<path d="M54.9684 29.3569C54.9684 15.2339 43.4814 3.74622 29.3577 3.74622C22.246 3.74622 16.3307 6.21196 11.2713 11.2862C10.9442 11.6134 10.9442 12.1555 11.2713 12.4975L16.0749 17.3004L28.7308 29.9563C29.0298 30.2552 29.5146 30.3124 29.8566 30.0559C29.9549 29.9835 30.0365 29.8908 30.0957 29.7841C30.155 29.6773 30.1905 29.5591 30.2 29.4374C30.2095 29.3157 30.1926 29.1933 30.1505 29.0787C30.1085 28.9641 30.0422 28.8599 29.9563 28.7732L27.5902 26.4071C28.1242 26.1032 28.7291 25.946 29.3435 25.9513C29.8128 25.9516 30.2769 26.0486 30.7071 26.2361C31.1372 26.4237 31.5241 26.6979 31.8436 27.0415C32.1631 27.3852 32.4084 27.791 32.5642 28.2336C32.72 28.6762 32.783 29.1462 32.7492 29.6142C32.6354 31.2813 31.2955 32.6354 29.6425 32.7782C27.6333 32.9492 25.9513 31.3669 25.9372 29.4001C25.9372 28.9725 25.6375 28.6022 25.2241 28.5308C25.1018 28.5112 24.9768 28.5183 24.8575 28.5514C24.7382 28.5845 24.6274 28.643 24.5328 28.7228C24.4381 28.8027 24.3618 28.9019 24.309 29.0139C24.2562 29.1259 24.2282 29.248 24.2269 29.3718C24.2274 30.0772 24.3736 30.775 24.6564 31.4213C24.9391 32.0675 25.3524 32.6484 25.8702 33.1275C26.388 33.6066 26.9992 33.9735 27.6655 34.2052C28.3318 34.437 29.0388 34.5286 29.7421 34.4743C32.251 34.2884 34.2743 32.2651 34.4602 29.7562C34.5145 29.0528 34.4228 28.3458 34.191 27.6795C33.9592 27.0131 33.5922 26.4019 33.1131 25.8841C32.6339 25.3662 32.053 24.953 31.4066 24.6703C30.7602 24.3875 30.0624 24.2414 29.3569 24.241C28.2021 24.241 27.1909 24.5548 26.364 25.1534L22.7434 21.5329C24.5983 19.9507 26.9615 19.0906 29.3993 19.1103C35.0149 19.1385 39.6043 23.7562 39.5902 29.3718C39.5896 31.5387 38.9003 33.6493 37.6219 35.3989C36.3434 37.1484 34.542 38.4464 32.4778 39.1054C32.2137 38.4928 31.7762 37.9708 31.2192 37.6038C30.6621 37.2367 30.0099 37.0406 29.3428 37.0397C28.6755 37.0406 28.023 37.2367 27.4658 37.6039C26.9086 37.9711 26.4711 38.4933 26.2071 39.1061C24.1405 38.4464 22.3374 37.1461 21.0589 35.3935C19.7804 33.641 19.0927 31.527 19.0954 29.3577V29.3428C19.0954 28.8729 18.7251 28.4877 18.2403 28.4877C17.7696 28.4877 17.3851 28.8587 17.3851 29.3294V29.3577C17.3851 34.7019 20.8912 39.3195 25.9647 40.8164C26.1506 42.5267 27.5894 43.8666 29.3428 43.8666C31.0954 43.8666 32.535 42.5267 32.7202 40.8164C35.2431 40.0821 37.4519 38.5331 39.0016 36.4111C40.5513 34.2892 41.3547 31.7137 41.2863 29.087C41.1436 22.6163 35.7986 17.4141 29.3428 17.4141C26.4354 17.4141 23.699 18.4552 21.518 20.3364L17.8982 16.7159C21.0481 13.8657 25.0664 12.2841 29.3421 12.2841C32.8198 12.2841 36.1407 13.3237 38.9916 15.2763C38.8271 15.6793 38.7399 16.1096 38.7343 16.5449C38.7343 18.4262 40.2594 19.9654 42.1549 19.9654C42.6114 19.9654 43.039 19.8799 43.4234 19.7089C45.3792 22.5459 46.4233 25.9119 46.4164 29.3577C46.4164 38.7782 38.7633 46.432 29.3428 46.432C19.9215 46.432 12.2685 38.7782 12.2685 29.3577V29.3294C12.2696 29.2187 12.2486 29.109 12.2068 29.0065C12.1649 28.904 12.1031 28.8109 12.0249 28.7326C11.9466 28.6543 11.8536 28.5924 11.7511 28.5504C11.6487 28.5085 11.5389 28.4874 11.4282 28.4884C10.9575 28.4884 10.5582 28.8729 10.5582 29.3577C10.5582 39.7754 19.0946 48.256 29.5421 48.1422C39.8609 48.0277 48.2121 39.5196 48.1125 29.1867C48.0842 25.3958 46.9153 21.7894 44.7775 18.6827C45.2711 18.0791 45.5427 17.3246 45.5471 16.5449C45.5471 14.6636 44.0227 13.1244 42.1266 13.1244C41.3442 13.127 40.5875 13.4044 39.9888 13.9081C36.861 11.7301 33.1394 10.5659 29.3279 10.5731C24.5965 10.5731 20.1498 12.3265 16.6869 15.5046L13.0664 11.8848C17.6417 7.55191 22.9717 5.44234 29.3287 5.44234C42.5118 5.44234 53.2291 16.1604 53.2291 29.3436C53.2291 34.5167 51.5189 39.562 48.4255 43.6807C47.8436 43.239 47.1336 42.9989 46.403 42.9966C44.5217 42.9966 42.9825 44.5217 42.9825 46.4171C42.9825 47.1726 43.2383 47.8708 43.6666 48.4412C39.5471 51.5345 34.5018 53.2448 29.3287 53.2448C16.1456 53.244 5.42821 42.5259 5.42821 29.3428V29.3279C5.42821 28.858 5.04303 28.4728 4.57308 28.4728C4.10239 28.4728 3.71796 28.858 3.71796 29.3279V29.3428C3.71796 43.4665 15.2049 54.9535 29.3294 54.9535C35.0212 54.9455 40.5478 53.0398 45.0348 49.538C45.4482 49.7231 45.9182 49.8228 46.403 49.8228C48.2843 49.8228 49.8235 48.2984 49.8235 46.4022C49.8235 45.9174 49.7239 45.4616 49.5387 45.0489C53.0527 40.5727 54.9644 35.0476 54.9684 29.3569ZM29.5287 42.1571C29.2769 42.1841 29.0222 42.1543 28.7834 42.07C28.5446 41.9857 28.3277 41.849 28.1487 41.67C27.9696 41.4909 27.8329 41.274 27.7486 41.0352C27.6643 40.7964 27.6346 40.5417 27.6615 40.2899C27.705 39.9005 27.8795 39.5375 28.1565 39.2603C28.4335 38.9832 28.7965 38.8085 29.1859 38.7648C29.4377 38.7378 29.6924 38.7674 29.9312 38.8516C30.17 38.9358 30.387 39.0724 30.5661 39.2514C30.7453 39.4304 30.882 39.6473 30.9664 39.886C31.0508 40.1248 31.0807 40.3794 31.0538 40.6312C31.0105 41.0209 30.8359 41.3842 30.5587 41.6615C30.2816 41.9388 29.9183 42.1136 29.5287 42.1571ZM42.4129 14.8636C43.1394 14.9633 43.738 15.5477 43.8517 16.275C43.8919 16.5415 43.8704 16.8136 43.7889 17.0705C43.7075 17.3275 43.5682 17.5623 43.3818 17.7569C43.2992 17.7802 43.2218 17.8188 43.1535 17.8707C43.097 17.9138 43.0539 17.9852 42.9973 18.0417C42.6269 18.2575 42.1865 18.3189 41.7712 18.2128C41.0588 18.0276 40.5026 17.4149 40.4602 16.6735C40.442 16.4186 40.4812 16.1629 40.575 15.9251C40.6689 15.6874 40.8149 15.4738 41.0023 15.3001C41.1897 15.1264 41.4138 14.9969 41.6579 14.9214C41.9021 14.8459 42.1601 14.8261 42.4129 14.8636ZM46.7592 48.114C46.3889 48.1854 46.0327 48.1289 45.733 47.9861C45.733 47.9712 45.7189 47.9712 45.7189 47.9571C45.6132 47.8283 45.4678 47.7381 45.3054 47.7006C45.0958 47.517 44.9353 47.284 44.8383 47.0228C44.7413 46.7616 44.711 46.4803 44.75 46.2044C44.8019 45.8335 44.9733 45.4896 45.2382 45.2248C45.503 44.9599 45.8469 44.7886 46.2178 44.7366C46.4762 44.702 46.739 44.727 46.9862 44.8096C47.2334 44.8921 47.4585 45.0302 47.6442 45.2131C47.8299 45.396 47.9713 45.6189 48.0576 45.8648C48.1439 46.1108 48.1729 46.3732 48.1422 46.632C48.0418 47.3585 47.4723 47.972 46.7592 48.114Z" fill="#E85236"/>
</svg>
