<svg width="38" height="55" viewBox="0 0 38 55" fill="#00A6FB" xmlns="http://www.w3.org/2000/svg">
<g filter="url(#filter0_d_14_1319)">
<mask id="path-1-inside-1_14_1319" fill="white">
<path fill-rule="evenodd" clip-rule="evenodd" d="M33.5019 28.1224L4.30884 0.255981L4.03566 40.6131L14.1882 36.3095L18.5699 46.6463L28.9962 42.2266L24.6145 31.8898L33.5019 28.1224Z"/>
</mask>
<path fill-rule="evenodd" clip-rule="evenodd" d="M33.5019 28.1224L4.30884 0.255981L4.03566 40.6131L14.1882 36.3095L18.5699 46.6463L28.9962 42.2266L24.6145 31.8898L33.5019 28.1224Z" fill="white"/>
<path d="M4.30884 0.255981L5.6898 -1.19072L2.34023 -4.38808L2.30888 0.242444L4.30884 0.255981ZM33.5019 28.1224L34.2824 29.9638L37.0835 28.7764L34.8828 26.6757L33.5019 28.1224ZM4.03566 40.6131L2.0357 40.5996L2.01511 43.6419L4.81622 42.4545L4.03566 40.6131ZM14.1882 36.3095L16.0296 35.5289L15.249 33.6875L13.4076 34.4681L14.1882 36.3095ZM18.5699 46.6463L16.7286 47.4268L17.5091 49.2682L19.3505 48.4877L18.5699 46.6463ZM28.9962 42.2266L29.7768 44.068L31.6182 43.2874L30.8376 41.446L28.9962 42.2266ZM24.6145 31.8898L23.8339 30.0484L21.9925 30.8289L22.7731 32.6703L24.6145 31.8898ZM2.92788 1.70268L32.1209 29.5691L34.8828 26.6757L5.6898 -1.19072L2.92788 1.70268ZM6.03561 40.6266L6.30879 0.269519L2.30888 0.242444L2.0357 40.5996L6.03561 40.6266ZM13.4076 34.4681L3.25509 38.7717L4.81622 42.4545L14.9687 38.1508L13.4076 34.4681ZM20.4113 45.8657L16.0296 35.5289L12.3468 37.09L16.7286 47.4268L20.4113 45.8657ZM28.2157 40.3852L17.7894 44.8049L19.3505 48.4877L29.7768 44.068L28.2157 40.3852ZM22.7731 32.6703L27.1549 43.0071L30.8376 41.446L26.4559 31.1092L22.7731 32.6703ZM32.7213 26.281L23.8339 30.0484L25.395 33.7312L34.2824 29.9638L32.7213 26.281Z" fill="#E95238" mask="url(#path-1-inside-1_14_1319)"/>
</g>
<defs>
<filter id="filter0_d_14_1319" x="0.0356445" y="0.255981" width="37.4662" height="54.3903" filterUnits="userSpaceOnUse" color-interpolation-filters="sRGB">
<feFlood flood-opacity="0" result="BackgroundImageFix"/>
<feColorMatrix in="SourceAlpha" type="matrix" values="0 0 0 0 0 0 0 0 0 0 0 0 0 0 0 0 0 0 127 0" result="hardAlpha"/>
<feOffset dy="4"/>
<feGaussianBlur stdDeviation="2"/>
<feComposite in2="hardAlpha" operator="out"/>
<feColorMatrix type="matrix" values="0 0 0 0 0 0 0 0 0 0 0 0 0 0 0 0 0 0 0.25 0"/>
<feBlend mode="normal" in2="BackgroundImageFix" result="effect1_dropShadow_14_1319"/>
<feBlend mode="normal" in="SourceGraphic" in2="effect1_dropShadow_14_1319" result="shape"/>
</filter>
</defs>
</svg>
